<svg xmlns="http://www.w3.org/2000/svg" width="301" height="50" fill="none"><g clip-path="url(#a)"><path fill="#F5AB40" d="M80.994 49.68V29.45h-3.058v20.232h3.058ZM80.889 22.315h-2.953v3.3h2.953v-3.3Z"/><path fill="#00A7DC" d="M87.85 8.153h-2.953V36.69h2.952V8.153Z"/><path fill="#F5AB40" d="M73.928 8.153h-2.953V36.69h2.953V8.153ZM19.3 16.99h-2.954v19.7H19.3v-19.7Z"/><path fill="#00A7DC" fill-rule="evenodd" d="M90.17 27.213c0-5.75 3.269-10.222 8.753-10.222 6.116 0 7.698 5.43 7.698 8.944 0 .45-.038.823-.069 1.118a5.09 5.09 0 0 0-.036.48H93.333c.106 4.578 3.059 6.495 6.433 6.495 2.321 0 4.852-.746 6.012-1.172v2.556l-.211.107c-1.16.532-3.27 1.17-6.222 1.17-5.695 0-9.176-3.833-9.176-9.476Zm3.269-2.236h9.913c.106-2.13-.844-5.537-4.746-5.537-3.374 0-4.85 3.194-5.167 5.537ZM116.64 16.99c5.589 0 7.593 3.195 7.488 7.029V36.69h-3.059v-2.023c-1.16 1.384-3.585 2.023-6.222 2.023-3.902 0-5.8-2.662-5.906-5.43-.105-4.686 3.691-8.306 12.023-5.75v-1.705c0-1.597-.844-4.152-4.851-4.365-1.793 0-4.008.639-5.59 1.384v-2.556c1.582-.958 3.691-1.277 6.117-1.277Zm-.844 17.25c2.531 0 4.008-1.49 5.273-2.98V28.17c-4.113-1.171-8.858-1.064-8.858 2.662 0 2.236 1.792 3.408 3.585 3.408Z" clip-rule="evenodd"/><path fill="#F5AB40" fill-rule="evenodd" d="M60.535 16.99c3.902.107 6.644 2.024 7.699 6.07.843 3.088.738 6.176-.633 9.158-1.266 2.768-3.48 4.152-6.539 4.472h-1.687c-2.637-.213-4.535-2.023-4.535-2.023v10.967h-2.953V16.991h2.953v2.236s1.582-1.704 4.113-2.13c.105-.106.316-.106.422-.106h1.16Zm5.062 10.862v-.426c0-.201.023-.378.048-.566.028-.21.057-.43.057-.712-.105-3.514-1.792-5.218-2.742-5.856l-.21-.107-.211-.106-.211-.107h-.106c-1.265-.426-2.636-.32-3.058-.213-3.164.64-4.324 3.088-4.324 3.195V30.514c1.687 3.088 5.484 3.088 5.484 3.088.527 0 .949-.107 1.37-.213 2.321-.639 3.27-2.982 3.481-3.514.037-.184.085-.393.138-.619.1-.428.215-.916.284-1.404Z" clip-rule="evenodd"/><path fill="#00A7DC" d="M129.506 19.333v-2.342h-3.164V36.69h3.164V25.722c0-2.13.422-3.194.527-3.3l.633-.959c.317-.32.949-.852 1.899-1.278a13.18 13.18 0 0 1 1.054-.32h.528c.422-.106.843-.106 1.371-.212h1.476V16.99c-4.64-.213-6.961 1.916-7.488 2.342Z"/><path fill="#F5AB40" d="M14.026 30.088c-.21-2.236-1.582-3.514-3.69-4.153-.528-.213-1.16-.32-1.688-.426-1.16-.32-2.32-.532-3.375-.958-2.004-.852-1.582-3.301-.422-4.153a4.585 4.585 0 0 1 2.637-.852H9.28c.633.107 1.16.107 1.793.32 1.16.319 2.11.745 2.11.745v-2.556c-.106 0-.633-.212-.633-.212-2.11-.64-4.219-.959-6.433-.64-2.848.427-5.379 2.45-5.062 6.177.105 1.49.843 2.662 2.214 3.194 1.055.532 2.32.745 3.375 1.065.95.32 2.004.639 2.953.958a1.732 1.732 0 0 1 1.16 1.384c.422 1.491-.105 2.769-1.687 3.514-1.371.64-2.848.64-4.324.533-2.637-.213-3.691-1.065-3.691-1.065V35.412s.738.32 1.687.639l1.266.32c1.476.212 2.952.212 4.534-.107.95-.213 1.899-.533 2.742-.959 2.004-.851 3.059-2.875 2.742-5.217ZM19.3 11.028h-2.954v3.3H19.3v-3.3Z"/><path fill="#00A7DC" d="M154.712 22.208c-1.055-4.152-4.43-4.898-5.168-5.11h-.316c-1.898-.214-3.269 0-4.43.425l-.21.107c-1.477.639-2.11 1.597-2.11 1.597V16.99h-3.164v19.592h3.164V24.551c0-2.556 2.11-4.685 4.746-4.685h.106s2.32-.213 3.691 1.597l.105.106.211.32c.106.213.211.32.316.532 0 .107.106.213.106.426.105.426.316 1.49.316 3.514v10.222h3.164V24.87c-.211-1.065-.316-1.916-.527-2.662Z"/><path fill="#F5AB40" d="M41.974 16.99c-3.797.107-5.484 1.917-6.012 2.663l-.21.32v-.214l-.106-.106-.105-.213c-.739-1.065-1.793-1.704-2.32-1.917-1.477-.532-2.743-.532-2.953-.532h-.106c-1.898-.107-3.27.639-3.27.639-1.581.639-2.32 1.597-2.32 1.597V16.99H21.62V36.583h2.953V24.764c0-.745.105-1.278.21-1.597a4.76 4.76 0 0 1 4.64-3.62c2.005 0 3.587 1.064 4.325 2.768.21.532.316 1.171.316 1.81V36.476h2.953V24.339c0-2.768 2.11-4.792 4.746-4.792.949 0 1.898.32 2.636.852 1.266.852 2.11 2.13 2.11 3.834v12.245h3.058v-11.82c0-1.597-.316-2.875-.844-3.94-1.898-3.407-5.378-3.726-6.75-3.726Z"/></g><g clip-path="url(#b)"><path fill="#00A7DC" d="M190.677 31.156c0-.958-.344-1.7-1.034-2.225-.689-.525-1.879-1.081-3.602-1.638-1.723-.556-3.133-1.112-4.198-1.637-3.54-1.73-5.325-4.08-5.325-7.076 0-1.483.438-2.812 1.315-3.955.878-1.144 2.131-2.04 3.76-2.658 1.629-.649 3.446-.958 5.45-.958 1.974 0 3.728.34 5.295 1.05 1.566.68 2.788 1.67 3.633 2.967.878 1.267 1.285 2.75 1.285 4.388h-6.579c0-1.112-.344-1.947-1.034-2.565-.689-.618-1.597-.896-2.788-.896-1.19 0-2.098.247-2.788.773-.689.525-1.033 1.174-1.033 1.946 0 .68.376 1.329 1.127 1.885.752.556 2.068 1.144 3.979 1.73 1.879.588 3.446 1.237 4.668 1.947 2.944 1.669 4.448 3.986 4.448 6.953 0 2.348-.909 4.202-2.694 5.562-1.817 1.36-4.292 2.008-7.425 2.008-2.224 0-4.229-.401-6.014-1.174-1.786-.772-3.164-1.854-4.073-3.213-.908-1.36-1.378-2.936-1.378-4.728h6.61c0 1.452.376 2.503 1.128 3.183.751.68 2.004 1.02 3.696 1.02 1.096 0 1.942-.217 2.6-.68.658-.526.971-1.175.971-2.01ZM208.569 30.844l-1.785 1.762v5.716h-6.328V9.832h6.328v15.142l.626-.835 4.762-5.87h7.581l-7.111 8.25 7.581 11.803h-7.237l-4.417-7.478ZM221.376 13.078c0-.896.313-1.607.971-2.194.658-.556 1.504-.865 2.537-.865 1.034 0 1.88.278 2.538.865.658.556.971 1.298.971 2.194 0 .896-.313 1.607-.971 2.194-.658.556-1.504.865-2.538.865-1.033 0-1.879-.278-2.537-.865-.627-.556-.971-1.298-.971-2.194Zm6.735 25.245h-6.359V18.27h6.359v20.054ZM238.705 38.322h-6.36V9.832h6.36v28.49ZM249.287 38.322h-6.359V9.832h6.359v28.49ZM285.656 29.177v9.147h-6.578V11.317h10.933c2.099 0 3.947.37 5.545 1.143 1.597.773 2.85 1.854 3.727 3.245.878 1.39 1.316 2.997 1.316 4.79 0 2.626-.971 4.727-2.882 6.303-1.911 1.576-4.542 2.38-7.863 2.38h-4.198Zm0-5.037h4.323c1.285 0 2.256-.309 2.914-.957.658-.618 1.002-1.514 1.002-2.658 0-1.267-.344-2.255-1.033-3.028-.689-.742-1.629-1.143-2.82-1.143h-4.386v7.786ZM253.048 11.625V29.3c0 2.008.438 3.739 1.284 5.191.877 1.452 2.099 2.596 3.728 3.337 1.629.773 3.539 1.144 5.733 1.144 3.32 0 5.951-.866 7.862-2.565 1.911-1.7 2.883-4.048 2.945-7.014V19.01l-6.641 6.18v4.326c-.063 2.967-1.472 4.419-4.166 4.419-1.379 0-2.412-.37-3.102-1.113-.689-.741-1.065-1.946-1.065-3.615V11.563h-6.578v.062Z"/><path fill="#F5AB40" fill-rule="evenodd" d="M267.995 10.267v12.421l6.61-6.18v-6.241c5.733.03 4.762-.186.72-5.562-4.73-6.273-3.602-6.273-8.332 0-4.104 5.469-5.044 5.623 1.002 5.562Z" clip-rule="evenodd"/></g><path stroke="#DDD" stroke-linecap="round" stroke-width="2.778" d="M165.614 4.63v38.889"/><defs><clipPath id="a"><path fill="#fff" d="M0 7.407h155.556V50H0z"/></clipPath><clipPath id="b"><path fill="#fff" d="M175.672 0h125v39.815h-125z"/></clipPath></defs></svg>